<svg width="1920" height="2384" viewBox="0 0 1920 2384" fill="none" xmlns="http://www.w3.org/2000/svg">
<path d="M-407 1563.67V1129.44H-377.603V1102.63H-249.639V1118.2H-230.617V1129.44H-211.596V1145.88H-201.22V1124.25H-131.186V1145.88H-111.3V539.526L-103.518 536.066V512.711H57.3014L65.9476 520.496V536.066H80.6462V522.226L85.8339 514.441H191.318L194.776 520.496V575.855H235.413V1082.74L241.466 1089.66V1142.42H282.103V379.504H319.282V327.605H358.19V320.685H425.63V327.605H467.132V379.504H506.04V609.589L499.987 614.779V707.333H512.957L527.361 640.887C528.129 637.342 529.435 633.937 531.234 630.788L546.314 604.387C556.385 586.755 582.73 590.029 588.179 609.589H646.108L657.348 597.48V379.504H686.745V371.719H698.85L704.902 379.504H780.125V257.541L851.023 248.891V233.322H955.643V248.891H996.28V636.404C1024.04 613.632 1059.47 602.366 1095.28 604.925L1112.14 606.13V1299.85H1147.59V56H1157.73C1240.15 56 1318.98 89.76 1375.85 149.418L1443.29 844L1466.63 1419.21H1528.89L1561.74 1442.57V1299.85L1579.9 1266.98V165.853L1611.89 146.823L1656.85 171.043L1720.83 268.786V434.863L1801.24 557.69V876.004L1815.08 887.249V915.794L1861.77 981.532V1442.57L1905.86 1510.9L1930.07 1531.66H1968.11V1442.57H2059.76L2089.16 1479.76H2467V1632H-211.596H-407V1563.67Z" fill="#EFF5FB"/>
<path d="M27 572.842L65.9879 535.633H78.9838V521.788L85.0486 514H190.749L194.215 520.057V575.438H234.935V1083.38L241 1089.44V1142.23V1632H27V572.842Z" fill="#DFEBF7"/>
<path d="M412 1632V692L680 692V1632H412Z" fill="#DFEBF7"/>
<path d="M978.899 617.375L899.349 607.863C921.204 659.051 938.135 712.204 949.912 766.601L950.364 768.692C962.952 741.228 970.72 711.802 973.327 681.702L978.899 617.375Z" fill="#D0E2F3"/>
<path d="M709.121 650.232L749.76 781.662L780.647 899.349C793.471 948.216 809.981 996.041 830.034 1042.41L841.416 1068.73L881.191 1163.85L895.011 1197.13C914.017 1242.9 929.595 1290.02 941.614 1338.1L952.094 1380.02L981.522 1209.59C1013.7 1023.25 992.379 831.593 920.033 656.872L893.296 592.299L851.792 585.382L831.04 561.171L709.121 541.283V650.232Z" fill="#DFEBF7"/>
<path d="M768.503 859.062L750.625 780.798L729.039 864.327C678.337 1060.52 688.436 1267.49 757.999 1457.82L821.528 1631.64H993.598L986.504 1549.74C978.589 1458.35 958.139 1368.49 925.728 1282.68L869.085 1132.72L827.435 1037.65C802.225 980.103 782.493 920.31 768.503 859.062Z" fill="#D0E2F3"/>
<path d="M742.342 1418.97L746.302 1404.23L822.393 1631.64L709.121 1632.5L709.543 1624.65C713.287 1555.14 724.279 1486.2 742.342 1418.97Z" fill="#EFF5FB"/>
<path d="M0 1037.78L453.098 1156.26C784.157 1242.83 1131.89 1243 1463.04 1156.78L1920 1037.78V2384H0V1037.78Z" fill="#FFA602"/>
<path d="M0 0.222949L1920 0V157.5L1657.9 136.254C1394.12 114.872 1128.62 133.085 870.232 190.289L666.417 235.411C445.637 284.289 215.92 274.668 0 207.5V0.222949Z" fill="#FFA602"/>
<circle cx="1399.5" cy="1940.5" r="399.5" fill="#FFC65D"/>
<circle cx="660" cy="1800" r="540" fill="#FFD994"/>
</svg>
