<svg width="201" height="201" viewBox="0 0 201 201" fill="none" xmlns="http://www.w3.org/2000/svg">
<circle cx="100.5" cy="100.5" r="100.5" fill="#FFC65D"/>
<path d="M127.969 36.627L127.882 36.5177C124.696 32.541 118.628 32.5947 115.512 36.627L115.182 36.3642C112.496 34.2264 108.642 36.7696 109.552 40.0798C106.473 39.6787 104.522 43.2873 106.544 45.644L106.67 45.7902H123.299H140.88C142.025 43.4626 140.661 40.6805 138.119 40.1608L137.142 39.9611C135.829 37.0549 132.633 35.495 129.534 36.2473L127.969 36.627Z" fill="white"/>
<path d="M98.3493 180L97.4511 99.0531C94.3416 96.8321 90.8039 95.2825 87.0629 94.5032L84.6523 94.001V180H98.3493Z" fill="#194067"/>
<path d="M84.6524 180V94.001C80.7656 95.909 78.0051 99.537 77.2026 103.792L77.0782 104.451C74.0492 120.511 72.33 136.79 71.9376 153.127L71.2922 180H84.6524Z" fill="#1E4D7B"/>
<path d="M84.6523 98.9411V98.043C88.83 99.162 92.8655 100.756 96.6798 102.795L97.4511 103.207V104.106L96.6138 103.644C92.8468 101.565 88.8261 99.9846 84.6523 98.9411Z" fill="#2D73B9"/>
<path d="M84.6523 101.186V100.288C88.83 101.407 92.8655 103.002 96.6798 105.04L97.4511 105.453V106.351L96.6138 105.889C92.8468 103.81 88.8261 102.23 84.6523 101.186Z" fill="#2D73B9"/>
<path d="M84.6523 103.431V102.533C88.83 103.652 92.8655 105.247 96.6798 107.285L97.4511 107.698V108.596L96.6138 108.134C92.8468 106.055 88.8261 104.475 84.6523 103.431Z" fill="#2D73B9"/>
<path d="M84.6523 105.677V104.779C88.83 105.898 92.8655 107.493 96.6798 109.531L97.4511 109.944V110.842L96.6138 110.38C92.8468 108.302 88.8261 106.721 84.6523 105.677Z" fill="#2D73B9"/>
<path d="M84.6523 107.923V107.024C88.83 108.143 92.8655 109.738 96.6798 111.777L97.4511 112.189V113.087L96.6138 112.625C92.8468 110.547 88.8261 108.966 84.6523 107.923Z" fill="#2D73B9"/>
<path d="M84.6523 110.168V109.27C88.8331 110.389 92.8899 111.929 96.7611 113.864L97.4511 114.209V115.108L96.6957 114.717C92.8712 112.739 88.8296 111.212 84.6523 110.168Z" fill="#2D73B9"/>
<path d="M84.6523 112.414V111.516C88.8331 112.635 92.8899 114.175 96.7611 116.11L97.4511 116.456V117.354L96.6957 116.963C92.8712 114.985 88.8296 113.458 84.6523 112.414Z" fill="#2D73B9"/>
<path d="M84.6523 114.659V113.761C88.8331 114.881 92.8899 116.42 96.7611 118.356L97.4511 118.701V119.599L96.6957 119.208C92.8712 117.23 88.8296 115.703 84.6523 114.659Z" fill="#2D73B9"/>
<path d="M84.6523 116.904V116.006C88.8358 117.126 92.9138 118.609 96.8402 120.437L97.4511 120.721V121.619L96.7756 121.293C92.8951 119.42 88.8328 117.949 84.6523 116.904Z" fill="#2D73B9"/>
<path d="M84.6523 119.149V118.251C88.8358 119.372 92.9138 120.854 96.8402 122.682L97.4511 122.966V123.864L96.7756 123.538C92.8951 121.665 88.8328 120.194 84.6523 119.149Z" fill="#2D73B9"/>
<path d="M84.6523 121.395V120.497C88.8358 121.618 92.9138 123.1 96.8402 124.928L97.4511 125.212V126.111L96.7756 125.784C92.8951 123.911 88.8328 122.44 84.6523 121.395Z" fill="#2D73B9"/>
<path d="M84.6523 123.64V122.742C88.8382 123.863 92.9371 125.287 96.9166 127.003L97.4511 127.233V128.131L96.8531 127.863C92.9184 126.099 88.8356 124.686 84.6523 123.64Z" fill="#2D73B9"/>
<path d="M84.6523 125.885V124.987C88.8382 126.109 92.9371 127.532 96.9166 129.248L97.4511 129.478V130.376L96.8531 130.108C92.9184 128.344 88.8356 126.931 84.6523 125.885Z" fill="#2D73B9"/>
<path d="M84.6523 128.132V127.233C88.8321 128.129 92.9061 129.462 96.8068 131.211L97.4511 131.5V132.398L96.7482 132.071C92.8899 130.274 88.8284 128.952 84.6523 128.132Z" fill="#2D73B9"/>
<path d="M84.6523 130.377V129.479C88.8321 130.374 92.9061 131.707 96.8068 133.456L97.4511 133.745V134.643L96.7482 134.316C92.8899 132.52 88.8284 131.197 84.6523 130.377Z" fill="#2D73B9"/>
<path d="M84.6523 132.622V131.724C88.8321 132.619 92.9061 133.952 96.8068 135.701L97.4511 135.99V136.888L96.7482 136.561C92.8899 134.765 88.8284 133.442 84.6523 132.622Z" fill="#2D73B9"/>
<path d="M84.6523 134.867V133.969C88.8351 134.865 92.928 136.139 96.8808 137.774L97.4511 138.01V138.909L96.8234 138.638C92.9119 136.952 88.8319 135.688 84.6523 134.867Z" fill="#2D73B9"/>
<path d="M84.6523 137.113V136.215C88.8351 137.111 92.928 138.385 96.8808 140.021L97.4511 140.257V141.155L96.8234 140.884C92.9119 139.198 88.8319 137.934 84.6523 137.113Z" fill="#2D73B9"/>
<path d="M84.6523 139.358V138.46C88.8351 139.356 92.928 140.63 96.8808 142.266L97.4511 142.502V143.4L96.8234 143.129C92.9119 141.443 88.8319 140.179 84.6523 139.358Z" fill="#2D73B9"/>
<path d="M84.6523 141.603V140.705C88.8377 141.602 92.9492 142.815 96.9514 144.333L97.4511 144.522V145.42L96.8955 145.2C92.9332 143.629 88.8349 142.425 84.6523 141.603Z" fill="#2D73B9"/>
<path d="M84.6523 143.848V142.95C88.8377 143.847 92.9492 145.06 96.9514 146.578L97.4511 146.767V147.666L96.8955 147.445C92.9332 145.874 88.8349 144.67 84.6523 143.848Z" fill="#2D73B9"/>
<path d="M84.6523 146.095V145.197C88.8273 145.794 92.911 146.911 96.8079 148.524L97.4511 148.79V149.688L96.8588 149.453C92.9243 147.893 88.8313 146.767 84.6523 146.095Z" fill="#2D73B9"/>
<path d="M84.6523 148.34V147.441C88.8273 148.038 92.911 149.155 96.8079 150.768L97.4511 151.034V151.932L96.8588 151.697C92.9243 150.137 88.8313 149.011 84.6523 148.34Z" fill="#2D73B9"/>
<path d="M84.6523 150.585V149.687C88.8273 150.283 92.911 151.4 96.8079 153.013L97.4511 153.279V154.177L96.8588 153.942C92.9243 152.382 88.8313 151.256 84.6523 150.585Z" fill="#2D73B9"/>
<path d="M84.6523 152.831V151.933C88.831 152.53 92.9309 153.586 96.8776 155.083L97.4511 155.301V156.199L96.9269 156.009C92.9441 154.567 88.8345 153.503 84.6523 152.831Z" fill="#2D73B9"/>
<path d="M84.6523 157.322V156.424C88.8343 157.021 92.9499 158.015 96.9435 159.392L97.4511 159.567V160.466L96.9435 160.291C92.9499 158.913 88.8343 157.919 84.6523 157.322Z" fill="#2D73B9"/>
<path d="M84.6523 159.566V158.668C88.8343 159.265 92.9499 160.259 96.9435 161.636L97.4511 161.812V162.71L96.9435 162.535C92.9499 161.158 88.8343 160.164 84.6523 159.566Z" fill="#2D73B9"/>
<path d="M84.6523 161.812V160.914C88.8371 161.512 92.9677 162.442 97.005 163.695L97.4511 163.833V164.731L97.005 164.593C92.9677 163.34 88.8371 162.41 84.6523 161.812Z" fill="#2D73B9"/>
<path d="M84.6523 164.057V163.159C88.8302 163.532 92.9519 164.38 96.9379 165.686L97.4511 165.854V166.752L96.9379 166.584C92.9519 165.278 88.8302 164.43 84.6523 164.057Z" fill="#2D73B9"/>
<path d="M84.6523 166.302V165.404C88.8302 165.777 92.9519 166.625 96.9379 167.931L97.4511 168.099V168.997L96.9379 168.829C92.9519 167.523 88.8302 166.675 84.6523 166.302Z" fill="#2D73B9"/>
<path d="M84.6523 168.549V167.65C88.8302 168.023 92.9519 168.871 96.9379 170.177L97.4511 170.345V171.243L96.9379 171.075C92.9519 169.769 88.8302 168.922 84.6523 168.549Z" fill="#2D73B9"/>
<path d="M84.6523 170.794V169.896C88.8337 170.269 92.9683 171.052 96.9968 172.232L97.4511 172.365V173.264L96.9968 173.13C92.9683 171.95 88.8337 171.167 84.6523 170.794Z" fill="#2D73B9"/>
<path d="M84.6523 173.04V172.142C88.8367 172.515 92.9833 173.232 97.0505 174.283L97.4511 174.387V175.285L97.0505 175.182C92.9833 174.13 88.8367 173.413 84.6523 173.04Z" fill="#2D73B9"/>
<path d="M84.6523 175.284V174.386C88.8366 174.685 92.9889 175.33 97.0666 176.314L97.4511 176.407V177.305L97.0351 177.197C92.9815 176.149 88.8333 175.508 84.6523 175.284Z" fill="#2D73B9"/>
<path d="M84.6523 177.53V176.632C88.7589 176.781 92.8409 177.334 96.8392 178.283L97.4511 178.428V179.326L96.8664 179.197C92.8469 178.312 88.7621 177.754 84.6523 177.53Z" fill="#2D73B9"/>
<path d="M84.6523 155.076V154.178C88.831 154.775 92.9309 155.831 96.8776 157.328L97.4511 157.546V158.444L96.9269 158.254C92.9441 156.812 88.8345 155.748 84.6523 155.076Z" fill="#2D73B9"/>
<path d="M76.9783 106.289L76.7036 106.463L76.5464 107.361L76.9384 107.123C79.3804 105.638 81.9645 104.402 84.6523 103.431V102.533C81.9658 103.503 79.3927 104.763 76.9783 106.289Z" fill="#3280CD"/>
<path d="M76.8835 108.378L76.3063 108.709L76.1536 109.607L76.852 109.22C79.3538 107.833 81.9622 106.649 84.6524 105.677V104.779C81.963 105.75 79.3636 106.954 76.8835 108.378Z" fill="#3280CD"/>
<path d="M84.6524 101.186V100.288C81.9887 101.25 79.4399 102.578 77.1303 104.218L76.9507 105.116L77.0487 105.05C79.4143 103.453 81.9682 102.156 84.6524 101.186Z" fill="#3280CD"/>
<path d="M84.6523 98.043L84.2184 98.1997C81.832 99.0614 79.617 100.339 77.6759 101.972L77.4087 102.871C79.5304 101.234 81.8938 99.9373 84.4141 99.0272L84.6523 98.9411V98.043Z" fill="#3280CD"/>
<path d="M84.6524 111.516L83.8793 111.762C80.8834 112.718 77.983 113.951 75.2155 115.445L75.0808 116.343C77.86 114.777 80.81 113.534 83.8727 112.641L84.6524 112.414V111.516Z" fill="#3280CD"/>
<path d="M84.6524 113.761L84.515 113.8C81.1736 114.744 77.9446 116.048 74.8849 117.69L74.7615 118.588C77.9041 116.946 81.2402 115.623 84.6524 114.659V113.761Z" fill="#3280CD"/>
<path d="M74.6922 119.874L74.5705 119.935L74.4583 120.833L74.6707 120.729C77.8756 119.155 81.2165 117.875 84.6524 116.904V116.006C81.2172 116.977 77.8821 118.272 74.6922 119.874Z" fill="#3280CD"/>
<path d="M74.6385 122.009L74.2778 122.18L74.1655 123.079L74.6198 122.868C77.86 121.364 81.2148 120.121 84.6523 119.149V118.251C81.2153 119.222 77.8657 120.479 74.6385 122.009Z" fill="#3280CD"/>
<path d="M74.5944 124.16L74.0017 124.427L73.8894 125.325L74.6414 124.978C77.8661 123.491 81.2162 122.292 84.6524 121.395V120.497C81.2142 121.469 77.8523 122.693 74.5944 124.16Z" fill="#3280CD"/>
<path d="M74.0263 126.501L73.7622 126.625L73.6499 127.523L74.0708 127.321C77.4467 125.696 80.9968 124.461 84.6524 123.64V122.742C80.994 123.638 77.4343 124.897 74.0263 126.501Z" fill="#3280CD"/>
<path d="M73.9719 128.627L73.5376 128.819L73.4253 129.717L74.0164 129.449C77.4305 127.901 80.9945 126.707 84.6523 125.885V124.987C80.992 125.884 77.418 127.102 73.9719 128.627Z" fill="#3280CD"/>
<path d="M73.9246 130.763L73.2663 131.038L73.154 131.936L73.9686 131.587C77.4162 130.11 80.9925 128.953 84.6522 128.132V127.233C80.9903 128.13 77.4036 129.31 73.9246 130.763Z" fill="#3280CD"/>
<path d="M73.9022 132.953L73.0886 133.283L72.9763 134.181L73.9457 133.778C77.4095 132.336 80.9918 131.198 84.6524 130.377V129.479C80.9897 130.375 77.3969 131.537 73.9022 132.953Z" fill="#3280CD"/>
<path d="M73.071 135.439L72.864 135.541L72.7966 136.439L72.9992 136.345C76.7114 134.618 80.6267 133.367 84.6523 132.622V131.724C80.632 132.394 76.7307 133.645 73.071 135.439Z" fill="#3280CD"/>
<path d="M73.0409 137.622L72.6973 137.786L72.6282 138.684L72.9713 138.529C76.7032 136.842 80.6253 135.613 84.6523 134.867V133.969C80.6304 134.639 76.722 135.869 73.0409 137.622Z" fill="#3280CD"/>
<path d="M73.0141 139.811L72.5384 140.032L72.478 140.93L72.948 140.723C76.6965 139.07 80.6243 137.859 84.6523 137.113V136.215C80.629 136.885 76.7143 138.095 73.0141 139.811Z" fill="#3280CD"/>
<path d="M72.9909 142.006L72.3923 142.277L72.3474 143.175L72.9288 142.924C76.6908 141.3 80.6232 140.104 84.6522 139.358V138.46C80.6276 139.131 76.7075 140.323 72.9909 142.006Z" fill="#3280CD"/>
<path d="M72.9709 144.206L72.2578 144.522L72.2241 145.42L72.9119 145.129C76.686 143.532 80.6227 142.349 84.6524 141.603V140.705C80.6268 141.376 76.7019 142.552 72.9709 144.206Z" fill="#3280CD"/>
<path d="M72.9549 146.415L72.1549 146.763L72.123 147.662L72.8972 147.34C76.6817 145.765 80.622 144.595 84.6524 143.848V142.95C80.626 143.621 76.6973 144.785 72.9549 146.415Z" fill="#3280CD"/>
<path d="M72.9456 148.641L72.0781 149.014L72.0332 149.913L72.8869 149.562C76.6786 148.004 80.6215 146.842 84.6524 146.095V145.197C80.6254 145.868 76.6946 147.025 72.9456 148.641Z" fill="#3280CD"/>
<path d="M84.6523 147.441L83.1025 147.751C79.2819 148.515 75.5554 149.691 71.9883 151.259L71.9658 152.157C75.5534 150.737 79.2425 149.588 83.0021 148.72L84.6523 148.34V147.441Z" fill="#3280CD"/>
<path d="M84.6523 149.687L83.0585 150.005C79.2636 150.764 75.5438 151.86 71.9433 153.279L71.9097 154.177C76.0344 152.617 80.3195 151.406 84.6523 150.585V149.687Z" fill="#3280CD"/>
<path d="M84.6523 151.933L83.12 152.239C79.2838 153.006 75.5216 154.106 71.876 155.525L71.8535 156.423C75.4387 155.004 79.1459 153.915 82.929 153.17L84.6523 152.831V151.933Z" fill="#3280CD"/>
<path d="M84.6523 154.178L82.7128 154.525C78.9992 155.19 75.3561 156.202 71.831 157.546L71.8086 158.444C75.3457 157.026 79.0273 155.999 82.7877 155.382L84.6523 155.076V154.178Z" fill="#3280CD"/>
<path d="M84.6523 156.424L84.3871 156.459C80.086 157.033 75.8605 158.075 71.7861 159.567L71.7637 160.466C75.1859 159.27 78.7004 158.357 82.2718 157.736L84.6523 157.322V156.424Z" fill="#3280CD"/>
<path d="M84.6523 158.668L84.4049 158.697C80.0917 159.2 75.8457 160.169 71.7412 161.587L71.7188 162.485C75.8417 161.141 80.0788 160.176 84.3773 159.603L84.6523 159.566V158.668Z" fill="#3280CD"/>
<path d="M84.6524 160.914L84.3875 160.945C80.0821 161.447 75.8312 162.339 71.6868 163.609L71.6643 164.507L72.5604 164.226C76.494 162.995 80.5475 162.185 84.6524 161.812V160.914Z" fill="#3280CD"/>
<path d="M72.5402 165.363L71.6384 165.629L71.616 166.527L72.5041 166.28C76.4783 165.175 80.5443 164.431 84.6525 164.057V163.159C80.5478 163.458 76.487 164.196 72.5402 165.363Z" fill="#3280CD"/>
<path d="M72.4864 167.415L71.5903 167.648L71.5679 168.546L72.4532 168.331C76.4638 167.354 80.5414 166.676 84.6523 166.302V165.404C80.5443 165.703 76.4721 166.376 72.4864 167.415Z" fill="#3280CD"/>
<path d="M72.4392 169.467L71.5391 169.671L71.5166 170.569C75.8114 169.533 80.2442 168.847 84.6522 168.549V167.65C80.5414 167.949 76.4589 168.557 72.4392 169.467Z" fill="#3280CD"/>
<path d="M84.6523 169.896L84.2439 169.916C79.9575 170.126 75.6951 170.683 71.4983 171.58L71.4758 172.365L71.562 172.346C75.8619 171.389 80.2477 170.868 84.6523 170.794V169.896Z" fill="#3280CD"/>
<path d="M84.6524 109.27L84.5435 109.302C81.4083 110.25 78.3932 111.558 75.5586 113.199L75.4238 114.097L75.575 114.005C78.3923 112.28 81.4521 110.986 84.6524 110.168V109.27Z" fill="#3280CD"/>
<path d="M76.5852 110.557L75.9289 110.954L75.7942 111.74L76.5812 111.278C79.1059 109.796 81.8215 108.668 84.6523 107.923V107.024C81.8204 107.844 79.1082 109.032 76.5852 110.557Z" fill="#3280CD"/>
<path d="M72.4317 173.397L71.4502 173.601L71.4277 174.387L71.5166 174.37C75.8502 173.56 80.2443 173.114 84.6524 173.04V172.142C80.5467 172.142 76.4517 172.562 72.4317 173.397Z" fill="#3280CD"/>
<path d="M72.3945 175.448L71.4043 175.621L71.3818 176.407L73.0416 176.156C76.8845 175.575 80.7656 175.284 84.6522 175.284V174.386C80.5433 174.386 76.4421 174.741 72.3945 175.448Z" fill="#3280CD"/>
<path d="M71.9488 177.53L71.3474 177.638L71.325 178.423C75.4143 177.829 79.5413 177.53 83.6738 177.53H84.6523V176.632C80.398 176.482 76.1398 176.784 71.9488 177.53Z" fill="#3280CD"/>
<path d="M120.242 29.3329L117.04 25.9555C111.272 19.8692 103.255 16.4219 94.8687 16.4219L96.7719 179.999H131.244L129.897 144.859L127.315 105.536L123.834 66.2136L120.242 29.3329Z" fill="#1E4D7B"/>
<path d="M95.0933 31.5784V30.6803L95.4254 30.6485C103.775 29.8498 112.194 30.1486 120.466 31.5373L120.554 32.4389C112.219 31.1217 103.754 30.8254 95.3464 31.5564L95.0933 31.5784Z" fill="#3280CD"/>
<path d="M96.4106 148.287L96.3994 147.389C107.04 146.676 117.719 146.758 128.348 147.634L130.002 147.771L130.035 148.67L128.337 148.53C117.715 147.656 107.044 147.574 96.4106 148.287Z" fill="#3280CD"/>
<path d="M95.0933 38.2025V37.3043C103.665 36.4844 112.307 36.7701 120.806 38.1543L121.101 38.2025L121.196 39.1006L120.815 39.0422C112.305 37.7386 103.67 37.4567 95.0933 38.2025Z" fill="#3280CD"/>
<path d="M95.0933 40.4486V39.5504C103.67 38.73 112.314 38.9363 120.842 40.1649L121.252 40.224L121.364 41.1222L120.849 41.0528C112.312 39.905 103.674 39.7024 95.0933 40.4486Z" fill="#3280CD"/>
<path d="M95.1814 42.7973V41.8992C103.704 41.0834 112.291 41.203 120.788 42.2559L121.477 42.3412L121.589 43.2394L120.792 43.148C112.288 42.1733 103.708 42.0559 95.1814 42.7973Z" fill="#3280CD"/>
<path d="M95.2056 47.1839V46.2858C103.864 45.4647 112.585 45.5506 121.225 46.5422L121.926 46.6226L122.038 47.5207L121.228 47.4351C112.582 46.5213 103.868 46.4372 95.2056 47.1839Z" fill="#3280CD"/>
<path d="M95.3176 49.429V48.5309C103.902 47.7098 112.548 47.7875 121.115 48.7627L122.038 48.8677L122.15 49.7658L121.118 49.6576C112.545 48.7588 103.905 48.6823 95.3176 49.429Z" fill="#3280CD"/>
<path d="M95.3176 51.6751V50.777C103.902 49.9558 112.548 50.022 121.119 50.9743L122.375 51.1138L122.487 52.0119L121.121 51.8721C112.545 50.9943 103.906 50.9283 95.3176 51.6751Z" fill="#3280CD"/>
<path d="M95.3176 53.9202V53.0221C103.902 52.2009 112.549 52.2596 121.122 53.1973L122.599 53.3589L122.712 54.2571L121.123 54.097C112.546 53.2326 103.906 53.1734 95.3176 53.9202Z" fill="#3280CD"/>
<path d="M95.3176 56.1663V55.2682C103.903 54.447 112.549 54.4985 121.124 55.4219L122.824 55.605L122.936 56.5031L121.125 56.3234C112.546 55.4721 103.906 55.4195 95.3176 56.1663Z" fill="#3280CD"/>
<path d="M95.3176 58.4115V57.5133C103.903 56.6921 112.549 56.7401 121.125 57.6566L122.936 57.8501L123.048 58.7483L121.126 58.5589C112.546 57.714 103.907 57.6646 95.3176 58.4115Z" fill="#3280CD"/>
<path d="M95.4299 60.6566V59.7584C104.016 58.9372 112.662 58.9783 121.24 59.8812L123.273 60.0952L123.385 60.9934L121.24 60.7853C112.659 59.9528 104.019 59.9097 95.4299 60.6566Z" fill="#3280CD"/>
<path d="M95.5422 62.9027V62.0045C104.128 61.1833 112.774 61.2244 121.352 62.1273L123.385 62.3413L123.497 63.2395L121.353 63.0314C112.771 62.1989 104.131 62.1558 95.5422 62.9027Z" fill="#3280CD"/>
<path d="M95.5422 65.1478V64.2497C104.135 63.5772 112.768 63.6228 121.353 64.3859L123.61 64.5865L123.722 65.4847L121.353 65.2931C112.765 64.5985 104.137 64.5499 95.5422 65.1478Z" fill="#3280CD"/>
<path d="M95.5422 67.393V66.4948C104.135 65.8223 112.768 65.8623 121.354 66.6144L123.834 66.8316L123.947 67.7298L121.355 67.5232C112.766 66.8385 104.138 66.795 95.5422 67.393Z" fill="#3280CD"/>
<path d="M95.5422 69.6381V68.7399C104.135 68.0674 112.769 68.102 121.356 68.8434L124.059 69.0767L124.171 69.9749L121.356 69.7537C112.766 69.0788 104.138 69.0401 95.5422 69.6381Z" fill="#3280CD"/>
<path d="M95.5422 71.8832V70.985C104.135 70.3126 112.769 70.3472 121.356 71.0885L124.059 71.3219L124.171 72.22L121.356 71.9988C112.766 71.3239 104.138 71.2852 95.5422 71.8832Z" fill="#3280CD"/>
<path d="M95.5422 74.1293V73.2311C104.136 72.5586 112.769 72.5829 121.358 73.3037L124.508 73.5679L124.62 74.4661L121.358 74.2169C112.766 73.5606 104.138 73.5313 95.5422 74.1293Z" fill="#3280CD"/>
<path d="M95.5422 76.3734V75.4753C104.136 74.8028 112.769 74.8245 121.359 75.5403L124.62 75.8121L124.732 76.7102L121.358 76.4543C112.766 75.8025 104.138 75.7755 95.5422 76.3734Z" fill="#3280CD"/>
<path d="M95.5422 78.6195V77.7214C104.136 77.0488 112.769 77.0657 121.36 77.7718L124.845 78.0582L124.957 78.9563L121.359 78.6871C112.767 78.0441 104.138 78.0215 95.5422 78.6195Z" fill="#3280CD"/>
<path d="M95.6216 80.8601V79.9619C104.162 79.2931 112.743 79.3049 121.282 79.9972L125.069 80.3043L125.181 81.2024L121.281 80.9145C112.74 80.2839 104.165 80.2658 95.6216 80.8601Z" fill="#3280CD"/>
<path d="M95.6545 83.1029V82.2048C104.174 81.5374 112.732 81.5445 121.25 82.2259L125.28 82.5483L125.361 83.4475L121.249 83.1472C112.729 82.5249 104.176 82.5101 95.6545 83.1029Z" fill="#3280CD"/>
<path d="M95.678 85.3459V84.4478C104.182 83.7818 112.725 83.785 121.228 84.4574L125.477 84.7934L125.558 85.6927L121.228 85.3516C112.725 84.6819 104.182 84.6799 95.678 85.3459Z" fill="#3280CD"/>
<path d="M95.6999 87.5893V86.6912C104.189 86.0263 112.717 86.0257 121.207 86.6894L125.673 87.0385L125.754 87.9378L121.207 87.5837C112.718 86.9226 104.189 86.9245 95.6999 87.5893Z" fill="#3280CD"/>
<path d="M95.7222 89.8337V88.9355C104.197 88.2718 112.71 88.2678 121.185 88.9234L125.855 89.2846L125.936 90.1839L121.186 89.8178C112.71 89.1647 104.197 89.17 95.7222 89.8337Z" fill="#3280CD"/>
<path d="M95.7556 92.0922L95.7444 91.194C104.204 90.5214 112.703 90.5082 121.165 91.1544L126.08 91.5297L126.161 92.429L121.154 92.0481C112.7 91.4048 104.208 91.4196 95.7556 92.0922Z" fill="#3280CD"/>
<path d="M95.7556 94.3373L95.7444 93.4391C104.204 92.7665 112.704 92.7492 121.166 93.3874L126.273 93.7725L126.354 94.6717L121.155 94.2812C112.7 93.6459 104.208 93.6647 95.7556 94.3373Z" fill="#3280CD"/>
<path d="M95.8152 96.5787L95.804 95.6805C104.224 95.011 112.684 94.9904 121.107 95.6187L126.467 96.0185L126.548 96.9178L121.097 96.5126C112.68 95.8871 104.228 95.9092 95.8152 96.5787Z" fill="#3280CD"/>
<path d="M95.8386 98.8209L95.8274 97.9228C104.232 97.2545 112.676 97.231 121.084 97.8522L126.672 98.2651L126.753 99.1643L121.074 98.7462C112.672 98.1277 104.236 98.1527 95.8386 98.8209Z" fill="#3280CD"/>
<path d="M95.8623 101.065L95.8511 100.167C104.24 99.5 112.668 99.4734 121.061 100.088L126.865 100.512L126.946 101.412L121.05 100.982C112.664 100.37 104.244 100.398 95.8623 101.065Z" fill="#3280CD"/>
<path d="M95.8904 103.308L95.8792 102.41C104.25 101.744 112.659 101.714 121.034 102.32L127.065 102.756L127.145 103.656L121.023 103.214C112.655 102.611 104.254 102.643 95.8904 103.308Z" fill="#3280CD"/>
<path d="M95.9285 105.551L95.9173 104.653C104.263 103.989 112.647 103.956 120.997 104.552L127.264 104.999L127.345 105.898L120.986 105.446C112.643 104.852 104.267 104.888 95.9285 105.551Z" fill="#3280CD"/>
<path d="M95.9426 107.795L95.9314 106.897C104.268 106.234 112.642 106.199 120.983 106.79L127.411 107.246L127.492 108.146L120.972 107.685C112.638 107.095 104.271 107.132 95.9426 107.795Z" fill="#3280CD"/>
<path d="M95.9675 110.038L95.9563 109.14C104.276 108.479 112.634 108.441 120.959 109.027L127.571 109.493L127.652 110.392L120.948 109.921C112.63 109.338 104.28 109.377 95.9675 110.038Z" fill="#3280CD"/>
<path d="M95.9914 112.282L95.9802 111.384C104.284 110.724 112.626 110.684 120.935 111.265L127.71 111.739L127.791 112.638L120.924 112.16C112.622 111.581 104.288 111.622 95.9914 112.282Z" fill="#3280CD"/>
<path d="M96.0188 114.525L96.0076 113.627C104.293 112.968 112.616 112.926 120.908 113.502L127.869 113.984L127.925 114.884L120.897 114.397C112.613 113.824 104.297 113.867 96.0188 114.525Z" fill="#3280CD"/>
<path d="M96.0708 119.011L96.0596 118.113C104.311 117.457 112.599 117.411 120.857 117.976L128.157 118.475L128.213 119.374L120.846 118.871C112.595 118.309 104.314 118.355 96.0708 119.011Z" fill="#3280CD"/>
<path d="M96.0412 116.769L96.03 115.871C104.301 115.213 112.609 115.168 120.886 115.738L128.024 116.228L128.08 117.127L120.875 116.633C112.605 116.066 104.305 116.111 96.0412 116.769Z" fill="#3280CD"/>
<path d="M96.1037 121.255L96.0925 120.357C104.322 119.702 112.588 119.655 120.825 120.213L128.307 120.721L128.363 121.62L120.814 121.109C112.585 120.552 104.326 120.601 96.1037 121.255Z" fill="#3280CD"/>
<path d="M96.133 123.498L96.1218 122.6C104.332 121.947 112.578 121.897 120.796 122.45L128.452 122.966L128.508 123.865L120.785 123.346C112.575 122.794 104.335 122.845 96.133 123.498Z" fill="#3280CD"/>
<path d="M96.1489 125.742L96.1377 124.843C104.337 124.192 112.573 124.14 120.78 124.688L128.606 125.211L128.662 126.111L120.769 125.584C112.569 125.037 104.341 125.09 96.1489 125.742Z" fill="#3280CD"/>
<path d="M96.1809 127.984L96.1697 127.086C104.348 126.436 112.563 126.382 120.749 126.925L128.754 127.455L128.81 128.355L120.738 127.82C112.559 127.279 104.352 127.334 96.1809 127.984Z" fill="#3280CD"/>
<path d="M96.2041 130.228L96.1929 129.33C104.356 128.681 112.555 128.626 120.726 129.165L128.886 129.703L128.942 130.602L120.715 130.061C112.551 129.523 104.359 129.579 96.2041 130.228Z" fill="#3280CD"/>
<path d="M96.227 132.473L96.2158 131.575C104.363 130.927 112.547 130.869 120.703 131.402L129.046 131.947L129.103 132.846L120.692 132.298C112.544 131.766 104.367 131.825 96.227 132.473Z" fill="#3280CD"/>
<path d="M96.2551 134.715L96.2439 133.816C104.373 133.17 112.538 133.111 120.676 133.639L129.194 134.192L129.251 135.091L120.665 134.535C112.534 134.008 104.377 134.068 96.2551 134.715Z" fill="#3280CD"/>
<path d="M96.2812 136.958L96.27 136.06C104.382 135.415 112.529 135.355 120.65 135.879L129.336 136.439L129.392 137.338L120.639 136.775C112.526 136.252 104.385 136.314 96.2812 136.958Z" fill="#3280CD"/>
<path d="M96.3076 139.201L96.2964 138.303C104.391 137.66 112.521 137.597 120.624 138.115L129.491 138.682L129.548 139.582L120.613 139.011C112.517 138.494 104.394 138.558 96.3076 139.201Z" fill="#3280CD"/>
<path d="M96.3281 141.445L96.3169 140.547C104.397 139.904 112.514 139.84 120.603 140.355L129.636 140.929L129.692 141.829L120.592 141.251C112.51 140.738 104.401 140.803 96.3281 141.445Z" fill="#3280CD"/>
<path d="M96.3523 143.689L96.3411 142.791C104.406 142.15 112.506 142.084 120.58 142.594L129.785 143.175L129.841 144.075L120.568 143.49C112.502 142.982 104.409 143.048 96.3523 143.689Z" fill="#3280CD"/>
<path d="M96.3794 145.932L96.3682 145.034C104.415 144.394 112.497 144.327 120.553 144.833L129.897 145.42L129.953 146.32L120.542 145.73C112.493 145.225 104.419 145.292 96.3794 145.932Z" fill="#3280CD"/>
<path d="M96.4106 148.174L96.3994 147.276C107.04 146.564 117.719 146.646 128.348 147.522L130.002 147.659L130.035 148.558L128.337 148.418C117.715 147.543 107.044 147.462 96.4106 148.174Z" fill="#3280CD"/>
<path d="M96.5364 159.394L96.5251 158.495C107.082 157.788 117.678 157.862 128.224 158.714L130.425 158.892L130.458 159.791L128.213 159.61C117.674 158.759 107.086 158.687 96.5364 159.394Z" fill="#3280CD"/>
<path d="M96.7307 175.097L96.7195 174.199C107.148 173.501 117.613 173.56 128.033 174.375L131.02 174.609L131.053 175.508L128.022 175.271C117.61 174.457 107.152 174.399 96.7307 175.097Z" fill="#3280CD"/>
<path d="M96.7468 177.343L96.7356 176.445C107.153 175.748 117.608 175.805 128.018 176.616L131.099 176.856L131.132 177.755L128.007 177.512C117.604 176.702 107.157 176.646 96.7468 177.343Z" fill="#3280CD"/>
<path d="M96.6762 170.612L96.665 169.714C107.13 169.013 117.631 169.075 128.087 169.9L130.858 170.118L130.891 171.017L128.076 170.796C117.628 169.973 107.133 169.911 96.6762 170.612Z" fill="#3280CD"/>
<path d="M96.5666 161.637L96.5554 160.738C107.093 160.033 117.667 160.104 128.194 160.95L130.522 161.137L130.555 162.036L128.183 161.846C117.664 161.001 107.096 160.931 96.5666 161.637Z" fill="#3280CD"/>
<path d="M96.593 163.88L96.5818 162.982C107.102 162.277 117.659 162.346 128.168 163.188L130.604 163.383L130.637 164.283L128.157 164.084C117.655 163.244 107.105 163.176 96.593 163.88Z" fill="#3280CD"/>
<path d="M96.6203 166.123L96.6091 165.225C107.111 164.522 117.65 164.588 128.142 165.424L130.693 165.627L130.726 166.527L128.131 166.32C117.646 165.486 107.115 165.42 96.6203 166.123Z" fill="#3280CD"/>
<path d="M96.6428 168.368L96.6316 167.47C107.118 166.768 117.642 166.832 128.12 167.663L130.777 167.873L130.81 168.773L128.108 168.559C117.639 167.729 107.122 167.666 96.6428 168.368Z" fill="#3280CD"/>
<path d="M96.6958 172.855L96.6846 171.956C107.136 171.257 117.625 171.317 128.068 172.138L130.94 172.364L130.973 173.263L128.057 173.034C117.621 172.215 107.14 172.155 96.6958 172.855Z" fill="#3280CD"/>
<path d="M96.4404 150.418L96.4292 149.519C107.05 148.808 117.709 148.888 128.319 149.758L130.088 149.904L130.121 150.803L128.308 150.654C117.706 149.786 107.054 149.706 96.4404 150.418Z" fill="#3280CD"/>
<path d="M96.4629 152.662L96.4517 151.764C107.058 151.054 117.702 151.134 128.296 152.003L130.173 152.157L130.206 153.056L128.285 152.899C117.698 152.031 107.062 151.952 96.4629 152.662Z" fill="#3280CD"/>
<path d="M96.4841 154.906L96.4729 154.008C107.065 153.298 117.695 153.376 128.275 154.24L130.258 154.402L130.291 155.301L128.264 155.136C117.691 154.273 107.069 154.197 96.4841 154.906Z" fill="#3280CD"/>
<path d="M96.51 157.156L96.4988 156.258C107.074 155.545 117.687 155.618 128.251 156.477L130.346 156.647L130.379 157.546L128.24 157.373C117.683 156.516 107.077 156.443 96.51 157.156Z" fill="#3280CD"/>
<path d="M95.0933 36.0687V35.1705C103.664 34.3507 112.4 34.6617 120.895 36.0653L120.983 36.9668L120.81 36.9399C112.304 35.6155 103.669 35.3229 95.0933 36.0687Z" fill="#3280CD"/>
<path d="M95.0933 33.8236V32.9254C103.594 32.1123 112.269 32.4064 120.691 33.8202L120.779 34.7217C112.294 33.3795 103.651 33.0794 95.0933 33.8236Z" fill="#3280CD"/>
<path d="M95.0933 29.3333V28.4352L95.6394 28.3829C103.846 27.598 112.12 27.9165 120.242 29.3299L120.33 30.2315C112.145 28.8895 103.824 28.5741 95.5613 29.2926L95.0933 29.3333Z" fill="#3280CD"/>
<path d="M95.2056 45.0511V44.1529C103.939 43.3318 112.734 43.4192 121.45 44.4136L121.701 44.4423L121.814 45.3405L121.453 45.3027C112.731 44.3886 103.943 44.3043 95.2056 45.0511Z" fill="#3280CD"/>
<path d="M97.1336 33.1526L96.8954 33.2285C94.4888 26.5136 84.9528 26.4913 82.6093 33.2285L82.5152 33.1491C79.7243 30.7962 75.5528 33.3879 76.4258 36.9323C73.3564 36.4862 71.3002 39.998 73.1913 42.4565L73.6539 43.0578H89.6457H103.15C107.582 38.6443 103.093 31.2545 97.1336 33.1526Z" fill="white"/>
</svg>
