<svg width="81" height="143" viewBox="0 0 81 143" fill="none" xmlns="http://www.w3.org/2000/svg">
<path d="M65.4439 22.7327L65.35 22.6082C61.7474 17.8292 54.551 17.8918 51.0321 22.7327C47.8781 20.0644 43.1026 22.9786 44.1365 26.9783C40.4998 26.4748 38.1219 30.6804 40.4281 33.5371L40.8018 34H60.0405H80.3797C81.7239 31.0972 80.0323 27.6964 76.9063 27.0171L76.0562 26.8324C74.5498 23.2901 70.6796 21.3818 66.9524 22.3434L65.4439 22.7327Z" fill="white"/>
<path d="M32.7441 142.023L31.956 71.7426C29.2269 69.8139 26.1286 68.4701 22.8555 67.7954L20.7246 67.3562V142.023H32.7441Z" fill="#194067"/>
<path d="M20.724 142.023V67.3562C17.3142 69.0123 14.8871 72.1819 14.1773 75.9055L14.0845 76.392C11.4218 90.3597 9.91032 104.522 9.56525 118.738L9 142.023H20.724Z" fill="#1E4D7B"/>
<path d="M20.7246 71.6452V70.8654C24.3908 71.837 27.9345 73.2227 31.2873 74.9957L31.956 75.3493V76.1291L31.2304 75.733C27.9184 73.9251 24.3875 72.5512 20.7246 71.6452Z" fill="#2D73B9"/>
<path d="M20.7246 73.5946V72.8148C24.3908 73.7864 27.9345 75.1721 31.2873 76.9451L31.956 77.2987V78.0785L31.2304 77.6824C27.9184 75.8745 24.3875 74.5006 20.7246 73.5946Z" fill="#2D73B9"/>
<path d="M20.7246 75.5442V74.7644C24.3908 75.736 27.9345 77.1217 31.2873 78.8947L31.956 79.2483V80.0281L31.2304 79.632C27.9184 77.8241 24.3875 76.4502 20.7246 75.5442Z" fill="#2D73B9"/>
<path d="M20.7246 77.4937V76.7139C24.3908 77.6855 27.9345 79.0712 31.2873 80.8442L31.956 81.1978V81.9776L31.2304 81.5815C27.9184 79.7736 24.3875 78.3997 20.7246 77.4937Z" fill="#2D73B9"/>
<path d="M20.7246 79.4433V78.6635C24.3908 79.6351 27.9345 81.0208 31.2873 82.7938L31.956 83.1474V83.9272L31.2304 83.5311C27.9184 81.7232 24.3875 80.3493 20.7246 79.4433Z" fill="#2D73B9"/>
<path d="M20.7246 81.3928V80.613C24.3935 81.5854 27.9556 82.923 31.3576 84.606L31.956 84.902V85.6818L31.3012 85.3467C27.9395 83.6263 24.3905 82.2996 20.7246 81.3928Z" fill="#2D73B9"/>
<path d="M20.7246 83.3423V82.5625C24.3935 83.5348 27.9556 84.8725 31.3576 86.5555L31.956 86.8515V87.6313L31.3012 87.2962C27.9395 85.5758 24.3905 84.2491 20.7246 83.3423Z" fill="#2D73B9"/>
<path d="M20.7246 85.2919V84.5121C24.3935 85.4844 27.9556 86.8221 31.3576 88.505L31.956 88.801V89.5809L31.3012 89.2458C27.9395 87.5254 24.3905 86.1986 20.7246 85.2919Z" fill="#2D73B9"/>
<path d="M20.7246 87.2415V86.4617C24.3959 87.4346 27.9763 88.7227 31.426 90.3116L31.956 90.5557V91.3355L31.3702 91.0557C27.9601 89.4269 24.3932 88.1489 20.7246 87.2415Z" fill="#2D73B9"/>
<path d="M20.7246 89.1909V88.4111C24.3959 89.3841 27.9763 90.6722 31.426 92.261L31.956 92.5051V93.285L31.3702 93.0052C27.9601 91.3764 24.3932 90.0984 20.7246 89.1909Z" fill="#2D73B9"/>
<path d="M20.7246 91.1404V90.3606C24.3959 91.3335 27.9763 92.6216 31.426 94.2105L31.956 94.4546V95.2344L31.3702 94.9546C27.9601 93.3258 24.3932 92.0478 20.7246 91.1404Z" fill="#2D73B9"/>
<path d="M20.7246 93.09V92.3102C24.3979 93.2837 27.9964 94.5206 31.4919 96.0113L31.956 96.2092V96.989L31.4371 96.7589C27.9802 95.2257 24.3957 93.998 20.7246 93.09Z" fill="#2D73B9"/>
<path d="M20.7246 95.0395V94.2596C24.3979 95.2331 27.9964 96.4701 31.4919 97.9608L31.956 98.1587V98.9385L31.4371 98.7084C27.9802 97.1752 24.3957 95.9475 20.7246 95.0395Z" fill="#2D73B9"/>
<path d="M20.7246 96.989V96.2092C24.3927 96.9869 27.9696 98.1453 31.3972 99.6655L31.956 99.9133V100.693L31.3467 100.413C27.9557 98.8507 24.3895 97.7013 20.7246 96.989Z" fill="#2D73B9"/>
<path d="M20.7246 98.9386V98.1588C24.3927 98.9365 27.9696 100.095 31.3972 101.615L31.956 101.863V102.643L31.3467 102.362C27.9557 100.8 24.3895 99.6509 20.7246 98.9386Z" fill="#2D73B9"/>
<path d="M20.7246 100.888V100.108C24.3927 100.886 27.9696 102.044 31.3972 103.564L31.956 103.812V104.592L31.3467 104.311C27.9557 102.75 24.3895 101.6 20.7246 100.888Z" fill="#2D73B9"/>
<path d="M20.7246 102.838V102.058C24.3953 102.836 27.9886 103.943 31.4611 105.364L31.956 105.567V106.347L31.4117 106.115C27.9747 104.649 24.3924 103.551 20.7246 102.838Z" fill="#2D73B9"/>
<path d="M20.7246 104.787V104.007C24.3953 104.786 27.9886 105.892 31.4611 107.314L31.956 107.516V108.296L31.4117 108.064C27.9747 106.598 24.3924 105.5 20.7246 104.787Z" fill="#2D73B9"/>
<path d="M20.7246 106.737V105.957C24.3953 106.735 27.9886 107.842 31.4611 109.263L31.956 109.466V110.246L31.4117 110.014C27.9747 108.548 24.3924 107.449 20.7246 106.737Z" fill="#2D73B9"/>
<path d="M20.7246 108.686V107.906C24.3975 108.685 28.0068 109.738 31.522 111.058L31.956 111.221V112L31.4739 111.811C27.993 110.446 24.3951 109.4 20.7246 108.686Z" fill="#2D73B9"/>
<path d="M20.7246 110.636V109.856C24.3975 110.635 28.0068 111.688 31.522 113.007L31.956 113.17V113.95L31.4739 113.761C27.993 112.395 24.3951 111.349 20.7246 110.636Z" fill="#2D73B9"/>
<path d="M20.7246 112.585V111.805C24.3885 112.323 27.9739 113.294 31.3984 114.696L31.956 114.925V115.704L31.4423 115.503C27.9854 114.147 24.392 113.168 20.7246 112.585Z" fill="#2D73B9"/>
<path d="M20.7246 114.535V113.755C24.3885 114.273 27.9739 115.244 31.3984 116.646L31.956 116.874V117.654L31.4423 117.452C27.9854 116.096 24.392 115.118 20.7246 114.535Z" fill="#2D73B9"/>
<path d="M20.7246 116.484V115.704C24.3885 116.222 27.9739 117.193 31.3984 118.595L31.956 118.824V119.604L31.4423 119.402C27.9854 118.046 24.392 117.067 20.7246 116.484Z" fill="#2D73B9"/>
<path d="M20.7246 118.434V117.654C24.3917 118.172 27.9911 119.09 31.4585 120.392L31.956 120.578V121.358L31.501 121.195C28.0025 119.942 24.3947 119.017 20.7246 118.434Z" fill="#2D73B9"/>
<path d="M20.7246 122.333V121.553C24.3945 122.072 28.0074 122.935 31.5153 124.132L31.956 124.282V125.062L31.5153 124.912C28.0074 123.715 24.3945 122.852 20.7246 122.333Z" fill="#2D73B9"/>
<path d="M20.7246 124.282V123.503C24.3945 124.021 28.0074 124.885 31.5153 126.082L31.956 126.232V127.012L31.5153 126.861C28.0074 125.665 24.3945 124.801 20.7246 124.282Z" fill="#2D73B9"/>
<path d="M20.7246 126.232V125.452C24.397 125.971 28.0228 126.779 31.5683 127.868L31.956 127.987V128.766L31.5683 128.647C28.0228 127.559 24.397 126.751 20.7246 126.232Z" fill="#2D73B9"/>
<path d="M20.7246 128.181V127.402C24.391 127.725 28.0092 128.462 31.5106 129.597L31.956 129.741V130.521L31.5106 130.376C28.0092 129.242 24.391 128.505 20.7246 128.181Z" fill="#2D73B9"/>
<path d="M20.7246 130.131V129.351C24.391 129.675 28.0092 130.411 31.5106 131.546L31.956 131.691V132.47L31.5106 132.326C28.0092 131.191 24.391 130.455 20.7246 130.131Z" fill="#2D73B9"/>
<path d="M20.7246 132.08V131.301C24.391 131.625 28.0092 132.361 31.5106 133.496L31.956 133.64V134.42L31.5106 134.276C28.0092 133.141 24.391 132.404 20.7246 132.08Z" fill="#2D73B9"/>
<path d="M20.7246 134.03V133.25C24.394 133.574 28.0233 134.254 31.5613 135.28L31.956 135.395V136.175L31.5613 136.06C28.0233 135.034 24.394 134.354 20.7246 134.03Z" fill="#2D73B9"/>
<path d="M20.7246 135.98V135.2C24.3966 135.524 28.0363 136.146 31.6075 137.06L31.956 137.149V137.929L31.6075 137.84C28.0363 136.926 24.3966 136.304 20.7246 135.98Z" fill="#2D73B9"/>
<path d="M20.7246 137.929V137.149C24.3965 137.409 28.041 137.969 31.6214 138.824L31.956 138.904V139.684L31.5942 139.591C28.0346 138.68 24.3937 138.124 20.7246 137.929Z" fill="#2D73B9"/>
<path d="M20.7246 139.879V139.099C24.3285 139.229 27.9111 139.709 31.4219 140.533L31.956 140.658V141.438L31.4453 141.327C27.9163 140.558 24.3312 140.073 20.7246 139.879Z" fill="#2D73B9"/>
<path d="M20.7246 120.383V119.604C24.3917 120.122 27.9911 121.04 31.4585 122.341L31.956 122.528V123.308L31.501 123.145C28.0025 121.891 24.3947 120.967 20.7246 120.383Z" fill="#2D73B9"/>
<path d="M13.9846 78.0289L13.7493 78.1761L13.6113 78.9559L13.95 78.7522C16.0966 77.4615 18.3658 76.3869 20.7245 75.5442V74.7644C18.3669 75.6067 16.1072 76.7012 13.9846 78.0289Z" fill="#3280CD"/>
<path d="M13.9026 79.8406L13.4006 80.1255L13.2666 80.9054L13.8754 80.5716C16.0736 79.3663 18.3638 78.3371 20.7246 77.4937V76.7139C18.3646 77.5571 16.082 78.6032 13.9026 79.8406Z" fill="#3280CD"/>
<path d="M20.7234 73.5946V72.8148C18.3912 73.6481 16.1493 74.8033 14.1225 76.2265L13.9648 77.0063L14.0443 76.9532C16.1246 75.5642 18.3678 74.4362 20.7234 73.5946Z" fill="#3280CD"/>
<path d="M20.7247 70.8654L20.3339 71.005C18.2462 71.7509 16.3062 72.8585 14.6026 74.277L14.3682 75.0568C16.2302 73.6357 18.3008 72.5112 20.5065 71.7231L20.7247 71.6452V70.8654Z" fill="#3280CD"/>
<path d="M20.7236 82.5625L20.0396 82.7785C17.4142 83.6075 14.871 84.6773 12.4425 85.9742L12.3242 86.754C14.7632 85.3938 17.3493 84.3161 20.0324 83.5418L20.7236 83.3423V82.5625Z" fill="#3280CD"/>
<path d="M20.7236 84.5121L20.596 84.5478C17.6683 85.3664 14.8374 86.4983 12.1523 87.9238L12.0439 88.7036C14.8018 87.2777 17.7336 86.1279 20.7236 85.2919V84.5121Z" fill="#3280CD"/>
<path d="M11.9779 89.8231L11.8768 89.8733L11.7783 90.6532L11.9594 90.5652C14.7755 89.1969 17.7088 88.0846 20.724 87.2415V86.4617C17.7094 87.3046 14.7811 88.43 11.9779 89.8231Z" fill="#3280CD"/>
<path d="M11.9316 91.6767L11.62 91.8228L11.5215 92.6026L11.9155 92.4217C14.762 91.1147 17.7073 90.0344 20.7239 89.1909V88.4111C17.7078 89.2545 14.767 90.3467 11.9316 91.6767Z" fill="#3280CD"/>
<path d="M11.8936 93.5425L11.3778 93.7723L11.2793 94.5521L11.9342 94.2532C14.7674 92.9603 17.7087 91.9187 20.7242 91.1404V90.3606C17.707 91.2043 14.7555 92.2677 11.8936 93.5425Z" fill="#3280CD"/>
<path d="M11.3927 95.5763L11.1669 95.6814L11.0684 96.4612L11.4311 96.2884C14.3981 94.8755 17.5153 93.8025 20.7234 93.09V92.3102C17.5129 93.0881 14.3875 94.1821 11.3927 95.5763Z" fill="#3280CD"/>
<path d="M11.3466 97.422L10.9706 97.5866L10.8721 98.3665L11.3849 98.1363C14.3849 96.7901 17.5141 95.7524 20.7241 95.0395V94.2596C17.512 95.038 14.3741 96.0961 11.3466 97.422Z" fill="#3280CD"/>
<path d="M11.3055 99.2756L10.7323 99.5124L10.6338 100.292L11.3434 99.9914C14.3724 98.7073 17.5122 97.7024 20.7238 96.989V96.2092C17.5103 96.9879 14.3615 98.0131 11.3055 99.2756Z" fill="#3280CD"/>
<path d="M11.2869 101.177L10.577 101.462L10.4785 102.242L11.3244 101.894C14.3673 100.641 17.5123 99.6521 20.7247 98.9386V98.1588C17.5105 98.9376 14.3564 99.9464 11.2869 101.177Z" fill="#3280CD"/>
<path d="M10.5525 103.338L10.3794 103.422L10.3203 104.202L10.4906 104.124C13.7534 102.622 17.1913 101.535 20.7241 100.888V100.108C17.1958 100.69 13.77 101.778 10.5525 103.338Z" fill="#3280CD"/>
<path d="M10.5259 105.234L10.2326 105.372L10.1719 106.152L10.4659 106.02C13.7457 104.554 17.1894 103.485 20.7235 102.838V102.058C17.1938 102.64 13.7619 103.709 10.5259 105.234Z" fill="#3280CD"/>
<path d="M10.5037 107.134L10.094 107.322L10.041 108.101L10.4467 107.924C13.7408 106.488 17.1894 105.435 20.7244 104.787V104.007C17.1935 104.59 13.7562 105.641 10.5037 107.134Z" fill="#3280CD"/>
<path d="M10.484 109.039L9.96618 109.271L9.92676 110.051L10.4305 109.836C13.7362 108.424 17.1889 107.384 20.7246 106.737V105.957C17.1927 106.539 13.7507 107.575 10.484 109.039Z" fill="#3280CD"/>
<path d="M10.4656 110.949L9.84695 111.221L9.81738 112L10.4147 111.75C13.7309 110.361 17.1872 109.334 20.7236 108.686V107.906C17.1908 108.489 13.7447 109.511 10.4656 110.949Z" fill="#3280CD"/>
<path d="M10.4516 112.867L9.75644 113.167L9.72852 113.947L10.4018 113.669C13.727 112.301 17.1864 111.284 20.7234 110.636V109.856C17.1899 110.439 13.7405 111.45 10.4516 112.867Z" fill="#3280CD"/>
<path d="M10.4442 114.798L9.6898 115.12L9.65039 115.899L10.3937 115.597C13.7251 114.243 17.1867 113.233 20.7241 112.585V111.805C17.1901 112.388 13.7388 113.393 10.4442 114.798Z" fill="#3280CD"/>
<path d="M20.7237 113.755L19.3571 114.025C16.0086 114.688 12.741 115.708 9.61052 117.069L9.59082 117.849C12.7391 116.616 15.9748 115.619 19.2711 114.866L20.7237 114.535V113.755Z" fill="#3280CD"/>
<path d="M20.7241 115.704L19.3204 115.982C15.9935 116.641 12.7312 117.591 9.57155 118.824L9.54199 119.604C13.1651 118.247 16.9218 117.198 20.7241 116.484V115.704Z" fill="#3280CD"/>
<path d="M20.7245 117.654L19.3749 117.921C16.0117 118.587 12.7121 119.541 9.51287 120.773L9.49316 121.553C12.6394 120.321 15.8906 119.376 19.2071 118.73L20.7245 118.434V117.654Z" fill="#3280CD"/>
<path d="M20.7239 119.604L19.017 119.906C15.7613 120.483 12.5663 121.361 9.47282 122.528L9.45312 123.308C12.5572 122.077 15.7856 121.185 19.0818 120.65L20.7239 120.383V119.604Z" fill="#3280CD"/>
<path d="M20.7243 121.553L20.4855 121.585C16.7149 122.082 13.0094 122.987 9.43377 124.282L9.41406 125.062C12.4173 124.024 15.4998 123.232 18.6314 122.693L20.7243 122.333V121.553Z" fill="#3280CD"/>
<path d="M20.7236 123.503L20.501 123.528C16.7195 123.965 12.9958 124.806 9.39374 126.037L9.37402 126.817C12.9922 125.649 16.7085 124.812 20.4776 124.315L20.7236 124.282V123.503Z" fill="#3280CD"/>
<path d="M20.7236 125.452L20.4869 125.479C16.7115 125.915 12.9829 126.689 9.34588 127.792L9.32617 128.571L10.1081 128.329C13.5631 127.259 17.1213 126.556 20.7236 126.232V125.452Z" fill="#3280CD"/>
<path d="M10.0911 129.316L9.30388 129.546L9.28418 130.326L10.06 130.112C13.55 129.152 17.1189 128.506 20.7241 128.181V127.402C17.1219 127.661 13.5575 128.303 10.0911 129.316Z" fill="#3280CD"/>
<path d="M10.045 131.097L9.26189 131.299L9.24219 132.079L10.0164 131.893C13.5378 131.044 17.1167 130.455 20.7242 130.131V129.351C17.1192 129.611 13.5449 130.195 10.045 131.097Z" fill="#3280CD"/>
<path d="M10.0044 132.879L9.21697 133.055L9.19727 133.835C12.9683 132.934 16.8558 132.34 20.7242 132.08V131.301C17.1168 131.56 13.5336 132.088 10.0044 132.879Z" fill="#3280CD"/>
<path d="M20.7239 133.25L20.3631 133.268C16.6032 133.451 12.8638 133.934 9.18084 134.712L9.16113 135.395L9.2339 135.379C13.0093 134.547 16.8585 134.095 20.7239 134.03V133.25Z" fill="#3280CD"/>
<path d="M20.7244 80.613L20.6215 80.6438C17.8749 81.4654 15.2318 82.5998 12.7442 84.0247L12.626 84.8045L12.7503 84.7292C15.2283 83.2281 17.9157 82.1037 20.7244 81.3928V80.613Z" fill="#3280CD"/>
<path d="M13.6376 81.7347L13.0684 82.0751L12.9502 82.7575L13.6341 82.3604C15.8542 81.0715 18.2392 80.0901 20.7235 79.4433V78.6635C18.2382 79.3752 15.8562 80.4077 13.6376 81.7347Z" fill="#3280CD"/>
<path d="M9.99787 136.29L9.13884 136.467L9.11914 137.149L9.1951 137.135C12.9995 136.431 16.8558 136.044 20.7243 135.98V135.2C17.1211 135.2 13.5273 135.565 9.99787 136.29Z" fill="#3280CD"/>
<path d="M9.96606 138.072L9.09881 138.222L9.0791 138.904L10.5344 138.686C13.9076 138.182 17.3136 137.929 20.7243 137.929V137.149C17.1184 137.149 13.5192 137.458 9.96606 138.072Z" fill="#3280CD"/>
<path d="M9.57408 139.879L9.04802 139.972L9.02832 140.654C12.617 140.138 16.238 139.879 19.8636 139.879H20.7235V139.099C16.99 138.969 13.2531 139.231 9.57408 139.879Z" fill="#3280CD"/>
<path d="M51.9542 11.2098L49.1894 8.32377C44.0957 3.00665 37.0517 0 29.6885 0L31.3586 142.023H61.6092L60.427 111.513L58.161 77.3719L55.1068 43.2308L51.9542 11.2098Z" fill="#1E4D7B"/>
<path d="M29.8857 13.1593V12.3795L30.1793 12.3517C37.5059 11.6583 44.8915 11.9178 52.1514 13.1236L52.2287 13.9064C44.9133 12.7627 37.4868 12.5053 30.1098 13.14L29.8857 13.1593Z" fill="#3280CD"/>
<path d="M31.0421 114.489L31.0322 113.709C40.3701 113.091 49.7409 113.162 59.0682 113.923L60.5198 114.041L60.5488 114.822L59.0585 114.701C49.7376 113.941 40.3734 113.871 31.0421 114.489Z" fill="#3280CD"/>
<path d="M29.8857 18.9104V18.1306C37.4084 17.4187 44.9911 17.6667 52.4512 18.8689L52.7088 18.9104L52.7918 19.6902L52.459 19.6398C44.9896 18.5077 37.4126 18.2628 29.8857 18.9104Z" fill="#3280CD"/>
<path d="M29.8857 20.86V20.0802C37.4127 19.3678 44.9974 19.547 52.4823 20.6139L52.8411 20.665L52.9396 21.4448L52.4881 21.3848C44.9955 20.3881 37.4165 20.2121 29.8857 20.86Z" fill="#3280CD"/>
<path d="M29.9629 22.9002V22.1204C37.4426 21.4121 44.977 21.516 52.4343 22.4302L53.0379 22.5042L53.1364 23.284L52.4376 23.2047C44.9746 22.3584 37.446 22.2564 29.9629 22.9002Z" fill="#3280CD"/>
<path d="M29.9844 26.7085V25.9287C37.583 25.2158 45.2349 25.2904 52.8181 26.1514L53.4323 26.2211L53.5308 27.0009L52.8205 26.9266C45.2324 26.1332 37.5862 26.0601 29.9844 26.7085Z" fill="#3280CD"/>
<path d="M30.082 28.6581V27.8783C37.6151 27.1654 45.2017 27.2328 52.721 28.0796L53.53 28.1707L53.6285 28.9505L52.723 28.8566C45.1992 28.0762 37.6184 28.0097 30.082 28.6581Z" fill="#3280CD"/>
<path d="M30.082 30.6075V29.8277C37.6156 29.1148 45.2023 29.1722 52.7243 29.9991L53.8255 30.1202L53.9241 30.9L52.7258 30.7786C45.1997 30.0164 37.6188 29.9591 30.082 30.6075Z" fill="#3280CD"/>
<path d="M30.082 32.5571V31.7773C37.616 31.0643 45.2027 31.1153 52.7264 31.9295L54.0226 32.0697L54.1211 32.8496L52.7276 32.7106C45.2 31.9601 37.6191 31.9087 30.082 32.5571Z" fill="#3280CD"/>
<path d="M30.082 34.5066V33.7268C37.6163 33.0138 45.2031 33.0585 52.7284 33.8603L54.2196 34.0192L54.3181 34.799L52.7292 34.643C45.2003 33.9038 37.6193 33.8581 30.082 34.5066Z" fill="#3280CD"/>
<path d="M30.082 36.4562V35.6764C37.6164 34.9633 45.2032 35.005 52.7293 35.8008L54.3181 35.9688L54.4167 36.7486L52.7301 36.5843C45.2004 35.8506 37.6195 35.8077 30.082 36.4562Z" fill="#3280CD"/>
<path d="M30.1816 38.4056V37.6258C37.7163 36.9128 45.3032 36.9485 52.8308 37.7325L54.6148 37.9183L54.7133 38.6981L52.8312 38.5174C45.3003 37.7945 37.7193 37.7571 30.1816 38.4056Z" fill="#3280CD"/>
<path d="M30.2793 40.3552V39.5754C37.814 38.8623 45.4008 38.8981 52.9285 39.682L54.7125 39.8678L54.811 40.6477L52.9289 40.467C45.398 39.7441 37.817 39.7067 30.2793 40.3552Z" fill="#3280CD"/>
<path d="M30.2793 42.3047V41.5249C37.8197 40.941 45.3954 40.9806 52.9293 41.6431L54.9095 41.8173L55.008 42.5971L52.9297 42.4308C45.3931 41.8277 37.8221 41.7855 30.2793 42.3047Z" fill="#3280CD"/>
<path d="M30.2793 44.2543V43.4745C37.8199 42.8906 45.3956 42.9253 52.9305 43.5783L55.1065 43.7669L55.2051 44.5467L52.9307 44.3673C45.3933 43.7729 37.8223 43.7351 30.2793 44.2543Z" fill="#3280CD"/>
<path d="M30.2793 46.2039V45.424C37.8201 44.8401 45.3958 44.8702 52.9318 45.5139L55.3036 45.7165L55.4021 46.4963L52.9317 46.3042C45.3935 45.7182 37.8224 45.6847 30.2793 46.2039Z" fill="#3280CD"/>
<path d="M30.2793 48.1533V47.3735C37.8201 46.7896 45.3958 46.8197 52.9318 47.4633L55.3036 47.6659L55.4021 48.4457L52.9317 48.2537C45.3935 47.6677 37.8224 47.6341 30.2793 48.1533Z" fill="#3280CD"/>
<path d="M30.2793 50.1029V49.3231C37.8204 48.7392 45.3963 48.7602 52.934 49.3861L55.6977 49.6155L55.7962 50.3953L52.9336 50.179C45.3938 49.6091 37.8227 49.5837 30.2793 50.1029Z" fill="#3280CD"/>
<path d="M30.2793 52.0524V51.2726C37.8205 50.6886 45.3963 50.7075 52.9346 51.329L55.7962 51.565L55.8947 52.3448L52.934 52.1226C45.3939 51.5566 37.8228 51.5332 30.2793 52.0524Z" fill="#3280CD"/>
<path d="M30.2793 54.0019V53.2221C37.8207 52.6382 45.3965 52.6528 52.9356 53.2659L55.9932 53.5146L56.0917 54.2944L52.9349 54.0607C45.394 53.5024 37.8229 53.4827 30.2793 54.0019Z" fill="#3280CD"/>
<path d="M30.3486 55.9467V55.1669C37.8437 54.5862 45.3729 54.5964 52.8664 55.1975L56.1898 55.4642L56.2883 56.244L52.8655 55.9939C45.3704 55.4465 37.846 55.4307 30.3486 55.9467Z" fill="#3280CD"/>
<path d="M30.3779 57.8942V57.1144C37.854 56.535 45.364 56.5411 52.8392 57.1328L56.3755 57.4127L56.4465 58.1934L41.6093 57.1212L30.3779 57.8942Z" fill="#3280CD"/>
<path d="M30.3984 59.8418V59.062C37.861 58.4838 45.3572 58.4866 52.8193 59.0704L56.548 59.3621L56.619 60.1429L52.8195 59.8468C45.3572 59.2653 37.861 59.2636 30.3984 59.8418Z" fill="#3280CD"/>
<path d="M30.418 61.7899V61.0101C37.8678 60.4329 45.3512 60.4324 52.8011 61.0086L56.72 61.3117L56.7911 62.0925L52.8014 61.7851C45.3512 61.2111 37.8679 61.2127 30.418 61.7899Z" fill="#3280CD"/>
<path d="M30.4375 63.7379V62.9581C37.8745 62.3818 45.3448 62.3783 52.7823 62.9475L56.8802 63.2612L56.9512 64.0419L52.7825 63.7241C45.3448 63.157 37.8745 63.1616 30.4375 63.7379Z" fill="#3280CD"/>
<path d="M30.4669 65.6991L30.457 64.9193C37.881 64.3353 45.3389 64.3238 52.7646 64.8849L57.0773 65.2108L57.1483 65.9915L52.7551 65.6608C45.3357 65.1023 37.8843 65.1151 30.4669 65.6991Z" fill="#3280CD"/>
<path d="M30.4669 67.6487L30.457 66.8689C37.8811 66.2849 45.339 66.2698 52.7654 66.8239L57.2467 67.1583L57.3177 67.939L52.7559 67.5999C45.3358 67.0484 37.8844 67.0647 30.4669 67.6487Z" fill="#3280CD"/>
<path d="M30.5196 69.594L30.5098 68.8142C37.8992 68.2329 45.3221 68.215 52.7143 68.7606L57.4178 69.1077L57.4888 69.8884L52.7048 69.5367C45.3189 68.9936 37.9025 69.0128 30.5196 69.594Z" fill="#3280CD"/>
<path d="M30.5391 71.5419L30.5293 70.7621C37.9051 70.1819 45.3142 70.1614 52.6931 70.7008L57.5968 71.0593L57.6678 71.84L52.6836 71.477C45.311 70.94 37.9084 70.9617 30.5391 71.5419Z" fill="#3280CD"/>
<path d="M30.5606 73.4898L30.5508 72.71C37.9128 72.1309 45.308 72.1078 52.6734 72.6411L57.767 73.0098L57.838 73.7906L52.6639 73.4173C45.3047 72.8865 37.9161 72.9107 30.5606 73.4898Z" fill="#3280CD"/>
<path d="M30.585 75.4374L30.5752 74.6575C37.921 74.0797 45.2999 74.0536 52.6496 74.5796L57.9414 74.9583L58.0124 75.7391L52.64 75.356C45.2966 74.8323 37.9243 74.8595 30.585 75.4374Z" fill="#3280CD"/>
<path d="M30.6182 77.3843L30.6084 76.6045C37.9321 76.0284 45.2886 75.9989 52.6167 76.5164L58.1164 76.9048L58.1874 77.6855L52.6071 77.2929C45.2854 76.7776 37.9355 76.8082 30.6182 77.3843Z" fill="#3280CD"/>
<path d="M30.6309 79.3329L30.6211 78.5531C37.9365 77.9776 45.2846 77.9467 52.6047 78.4605L58.2451 78.8565L58.3162 79.6372L52.5951 79.237C45.2814 78.7254 37.9399 78.7575 30.6309 79.3329Z" fill="#3280CD"/>
<path d="M30.6524 81.2807L30.6426 80.5008C37.9436 79.9265 45.2771 79.8937 52.583 80.4027L58.3852 80.807L58.4562 81.5877L52.5734 81.1793C45.2739 80.6724 37.9469 80.7063 30.6524 81.2807Z" fill="#3280CD"/>
<path d="M30.6739 83.2285L30.664 82.4487C37.9512 81.8754 45.2707 81.8409 52.5629 82.3452L58.5076 82.7564L58.5787 83.5372L52.5533 83.1218C45.2674 82.6196 37.9545 82.6552 30.6739 83.2285Z" fill="#3280CD"/>
<path d="M30.6983 85.1763L30.6885 84.3965C37.9596 83.8245 45.263 83.7881 52.5395 84.2874L58.648 84.7066L58.6972 85.4874L52.5298 85.065C45.2597 84.5671 37.9629 84.6043 30.6983 85.1763Z" fill="#3280CD"/>
<path d="M30.7432 89.0716L30.7334 88.2918C37.9743 87.7222 45.2471 87.6823 52.4938 88.1724L58.8996 88.6056L58.9489 89.3863L52.4841 88.95C45.2439 88.4614 37.9776 88.502 30.7432 89.0716Z" fill="#3280CD"/>
<path d="M30.7169 87.1242L30.707 86.3444C37.9652 85.7734 45.2554 85.7348 52.5191 86.2289L58.7828 86.6549L58.8321 87.4357L52.5095 87.0065C45.2521 86.5139 37.9684 86.5532 30.7169 87.1242Z" fill="#3280CD"/>
<path d="M30.7725 91.0189L30.7627 90.2391C37.9845 89.671 45.2381 89.6294 52.466 90.1145L59.0322 90.5552L59.0815 91.3359L52.4563 90.8922C45.2349 90.4085 37.9878 90.4508 30.7725 91.0189Z" fill="#3280CD"/>
<path d="M30.7979 92.9664L30.7881 92.1866C37.9928 91.6198 45.2291 91.5765 52.44 92.0569L59.1591 92.5046L59.2084 93.2854L52.4303 92.8347C45.2258 92.3556 37.9961 92.3996 30.7979 92.9664Z" fill="#3280CD"/>
<path d="M30.8116 94.9148L30.8018 94.135C37.9972 93.569 45.2241 93.524 52.426 94.0004L59.2935 94.4546L59.3427 95.2354L52.4163 94.7781C45.2209 94.3032 38.0005 94.3488 30.8116 94.9148Z" fill="#3280CD"/>
<path d="M30.8399 96.8622L30.8301 96.0824C38.007 95.5179 45.2153 95.471 52.399 95.9422L59.424 96.4031L59.4733 97.1838L52.3893 96.72C45.212 96.2502 38.0103 96.2977 30.8399 96.8622Z" fill="#3280CD"/>
<path d="M30.8604 98.8101L30.8506 98.0303C38.0139 97.4668 45.2084 97.4187 52.3786 97.8865L59.5402 98.3537L59.5895 99.1344L52.3689 98.6643C45.2052 98.1979 38.0172 98.2466 30.8604 98.8101Z" fill="#3280CD"/>
<path d="M30.8809 100.758L30.8711 99.9782C38.0211 99.4157 45.2022 99.3657 52.3593 99.8284L59.6811 100.302L59.7304 101.082L52.3496 100.606C45.1989 100.145 38.0244 100.196 30.8809 100.758Z" fill="#3280CD"/>
<path d="M30.9053 102.706L30.8955 101.926C38.0292 101.365 45.1939 101.313 52.3349 101.772L59.8107 102.252L59.8599 103.033L52.3252 102.55C45.1906 102.092 38.0325 102.144 30.9053 102.706Z" fill="#3280CD"/>
<path d="M30.9278 104.653L30.918 103.873C38.0365 103.313 45.1858 103.261 52.3118 103.716L59.9342 104.202L59.9834 104.983L52.3021 104.494C45.1825 104.04 38.0398 104.093 30.9278 104.653Z" fill="#3280CD"/>
<path d="M30.9512 106.601L30.9414 105.821C38.0446 105.262 45.1785 105.208 52.2894 105.658L60.0712 106.15L60.1204 106.931L52.2797 106.436C45.1753 105.987 38.0479 106.042 30.9512 106.601Z" fill="#3280CD"/>
<path d="M30.9698 108.549L30.9599 107.769L41.6101 106.932L60.1984 108.101L60.2477 108.882L41.6101 107.711L30.9698 108.549Z" fill="#3280CD"/>
<path d="M30.9903 110.497L30.9805 109.717L41.6093 108.881L60.3283 110.051L60.3775 110.832L41.6093 109.661L30.9903 110.497Z" fill="#3280CD"/>
<path d="M31.0137 112.444L31.0039 111.665L41.609 110.831L60.4265 112L60.4758 112.781L41.609 111.61L31.0137 112.444Z" fill="#3280CD"/>
<path d="M31.0421 114.392L31.0322 113.612C40.3701 112.993 49.7409 113.065 59.0682 113.825L60.5198 113.944L60.5488 114.724L59.0585 114.603C49.7376 113.844 40.3734 113.773 31.0421 114.392Z" fill="#3280CD"/>
<path d="M31.1514 124.132L31.1416 123.352C40.4063 122.739 49.7033 122.802 58.9588 123.542L60.89 123.697L60.919 124.477L58.9491 124.32C49.7001 123.581 40.4095 123.518 31.1514 124.132Z" fill="#3280CD"/>
<path d="M31.3223 137.767L31.3125 136.988C40.4641 136.381 49.6474 136.432 58.7916 137.14L61.412 137.343L61.4411 138.124L58.7819 137.918C49.6441 137.212 40.4674 137.161 31.3223 137.767Z" fill="#3280CD"/>
<path d="M31.337 139.716L31.3271 138.936C40.4694 138.33 49.6432 138.38 58.7784 139.084L61.482 139.293L61.511 140.073L58.7687 139.862C49.64 139.159 40.4727 139.11 31.337 139.716Z" fill="#3280CD"/>
<path d="M31.2745 133.872L31.2646 133.092C40.448 132.483 49.6632 132.537 58.8388 133.253L61.2697 133.443L61.2988 134.224L58.8291 134.031C49.66 133.317 40.4513 133.263 31.2745 133.872Z" fill="#3280CD"/>
<path d="M31.1788 126.08L31.1689 125.3C40.416 124.687 49.6953 124.749 58.9334 125.484L60.976 125.646L61.0051 126.427L58.9237 126.261C49.692 125.528 40.4193 125.467 31.1788 126.08Z" fill="#3280CD"/>
<path d="M31.2022 128.028L31.1924 127.248C40.4241 126.636 49.688 126.696 58.911 127.427L61.0476 127.597L61.0766 128.377L58.9013 128.205C49.6847 127.475 40.4274 127.416 31.2022 128.028Z" fill="#3280CD"/>
<path d="M31.2257 129.976L31.2158 129.196C40.4317 128.586 49.6798 128.643 58.8874 129.369L61.1252 129.545L61.1542 130.326L58.8777 130.147C49.6765 129.422 40.435 129.365 31.2257 129.976Z" fill="#3280CD"/>
<path d="M31.2452 131.924L31.2354 131.144C40.438 130.534 49.6727 130.59 58.8673 131.312L61.1989 131.495L61.2279 132.275L58.8577 132.09C49.6695 131.37 40.4413 131.314 31.2452 131.924Z" fill="#3280CD"/>
<path d="M31.2921 135.82L31.2822 135.04C40.4541 134.433 49.6579 134.485 58.8222 135.198L61.3429 135.394L61.3719 136.175L58.8125 135.976C49.6546 135.264 40.4574 135.212 31.2921 135.82Z" fill="#3280CD"/>
<path d="M31.0684 116.339L31.0586 115.56C40.3791 114.942 49.7325 115.012 59.0429 115.767L60.5957 115.893L60.6247 116.674L59.0332 116.545C49.7293 115.791 40.3824 115.722 31.0684 116.339Z" fill="#3280CD"/>
<path d="M31.087 118.288L31.0771 117.508C40.3846 116.891 49.7249 116.961 59.0221 117.715L60.6683 117.849L60.6974 118.63L59.0125 118.493C49.7216 117.74 40.3879 117.671 31.087 118.288Z" fill="#3280CD"/>
<path d="M31.1065 120.236L31.0967 119.456C40.3917 118.84 49.7194 118.908 59.0046 119.658L60.7445 119.798L60.7735 120.579L58.9949 120.436C49.7162 119.687 40.395 119.62 31.1065 120.236Z" fill="#3280CD"/>
<path d="M31.128 122.19L31.1182 121.41C40.3982 120.791 49.7111 120.855 58.9818 121.6L60.8203 121.748L60.8493 122.529L58.9722 122.378C49.7079 121.634 40.4015 121.571 31.128 122.19Z" fill="#3280CD"/>
<path d="M29.8857 17.0583V16.2785C37.4079 15.5667 45.0706 15.8365 52.5274 17.0554L52.6046 17.8382L52.4548 17.8151C44.9888 16.6649 37.412 16.4108 29.8857 17.0583Z" fill="#3280CD"/>
<path d="M29.8857 15.1089V14.3291C37.3444 13.6232 44.9578 13.8784 52.3485 15.1059L52.4257 15.8887C44.9795 14.7232 37.3948 14.4628 29.8857 15.1089Z" fill="#3280CD"/>
<path d="M29.8857 11.2097V10.4299L30.3673 10.3843C37.5677 9.7029 44.8267 9.97945 51.9544 11.2068L52.0316 11.9895C44.8484 10.8243 37.5489 10.5504 30.2986 11.1742L29.8857 11.2097Z" fill="#3280CD"/>
<path d="M29.9844 24.8564V24.0766C37.6487 23.3637 45.3661 23.4395 53.0149 24.303L53.2353 24.3279L53.3338 25.1077L53.0177 25.0749C45.3637 24.2812 37.6521 24.208 29.9844 24.8564Z" fill="#3280CD"/>
<path d="M20.5134 31H36.4306C41.6834 25.6844 36.1685 16.9265 29.0584 19.2275C26.2519 11.27 14.9526 11.2444 12.2197 19.2275C8.91892 16.3998 3.90744 19.4394 4.93135 23.6635C1.29595 23.1267 -1.15865 27.2713 1.05941 30.2012L1.66414 31H20.5134Z" fill="white"/>
</svg>
